<?xml version="1.0" encoding="utf-8"?>
<!-- Generator: Adobe Illustrator 24.1.0, SVG Export Plug-In . SVG Version: 6.00 Build 0)  -->
<svg version="1.1" id="Layer_1" xmlns="http://www.w3.org/2000/svg" xmlns:xlink="http://www.w3.org/1999/xlink" x="0px" y="0px"
	 viewBox="0 0 479.8 92.3" style="enable-background:new 0 0 479.8 92.3;" xml:space="preserve">
<style type="text/css">
	.st0{enable-background:new    ;}
	.st1{fill:#231F20;}
	.st2{fill:none;stroke:#FFFFFF;stroke-width:2;stroke-miterlimit:10;}
	.st3{fill:#FFFFFF;}
</style>
<g class="st0">
	<path class="st1" d="M4.9,36.1c-0.6,0-1.1-0.2-1.5-0.6c-0.4-0.4-0.7-0.9-0.7-1.6c0-0.6,0.2-1.2,0.7-1.6c0.4-0.4,1-0.6,1.5-0.6
		c0.6,0,1.1,0.2,1.5,0.6c0.4,0.4,0.7,0.9,0.7,1.6c0,0.6-0.2,1.2-0.7,1.6C6,35.9,5.5,36.1,4.9,36.1z M3.3,41.4h3.1v18.2H3.3V41.4z"/>
</g>
<g class="st0">
	<path class="st1" d="M11.2,59.2l10.5-15.2h-9.4v-2.6h14.3v0.5L16.1,57.1h10.4v2.6H11.2V59.2z"/>
</g>
<g class="st0">
	<path class="st1" d="M38.3,60c-1.2,0-2.4-0.2-3.4-0.7s-2-1.1-2.8-2c-0.8-0.8-1.4-1.8-1.8-3c-0.5-1.2-0.7-2.4-0.7-3.8
		c0-1.3,0.2-2.6,0.7-3.8c0.4-1.2,1.1-2.2,1.8-3s1.7-1.5,2.8-2c1.1-0.5,2.2-0.7,3.5-0.7c1.7,0,3.1,0.4,4.3,1.2c1.1,0.8,2,1.8,2.7,3.1
		l-0.1-3.9h3.1v18.2h-3.1l0.1-3.9c-0.6,1.2-1.5,2.3-2.7,3.1C41.4,59.6,40,60,38.3,60z M38.9,57.3c1,0,1.8-0.2,2.6-0.5
		c0.8-0.3,1.4-0.8,2-1.4c0.5-0.6,1-1.3,1.3-2.2s0.5-1.7,0.5-2.7c0-1-0.2-1.9-0.5-2.7c-0.3-0.8-0.7-1.5-1.3-2.2
		c-0.5-0.6-1.2-1.1-2-1.4c-0.8-0.3-1.6-0.5-2.6-0.5c-1.9,0-3.4,0.6-4.5,1.9c-1.1,1.3-1.6,2.9-1.6,4.9c0,2,0.5,3.6,1.6,4.9
		C35.5,56.6,37,57.3,38.9,57.3z"/>
	<path class="st1" d="M64.9,60c-1.6,0-3.1-0.4-4.3-1.2c-1.2-0.8-2.1-1.8-2.7-3.1l0.1,3.9h-3.1V27.8H58l0,17.3c0.7-1.2,1.6-2.2,2.7-3
		s2.6-1.1,4.3-1.1c1.2,0,2.4,0.2,3.5,0.7c1.1,0.5,2,1.1,2.8,2s1.4,1.8,1.9,3c0.5,1.2,0.7,2.4,0.7,3.8c0,1.4-0.2,2.6-0.7,3.8
		c-0.5,1.2-1.1,2.2-1.9,3c-0.8,0.8-1.7,1.5-2.8,2S66.1,60,64.9,60z M64.3,57.3c1.9,0,3.5-0.6,4.6-1.9s1.7-2.9,1.7-4.9
		c0-1-0.1-1.9-0.4-2.7c-0.3-0.8-0.7-1.6-1.3-2.1c-0.6-0.6-1.2-1.1-2-1.4s-1.6-0.5-2.6-0.5c-1,0-1.8,0.2-2.6,0.5s-1.5,0.8-2,1.4
		c-0.6,0.6-1,1.3-1.3,2.1c-0.3,0.8-0.5,1.7-0.5,2.7c0,1,0.2,1.9,0.5,2.8s0.7,1.6,1.3,2.2c0.6,0.6,1.2,1.1,2,1.4
		C62.4,57.1,63.3,57.3,64.3,57.3z"/>
	<path class="st1" d="M81,51.5c0.2,1.8,0.9,3.2,2,4.2c1.1,1.1,2.7,1.6,4.8,1.6c1.4,0,2.5-0.2,3.5-0.7c0.9-0.5,1.7-1,2.3-1.7l1.9,1.8
		c-0.9,0.9-1.9,1.7-3.1,2.3c-1.2,0.6-2.7,0.9-4.5,0.9c-1.5,0-2.9-0.2-4.1-0.7c-1.2-0.5-2.3-1.2-3.1-2c-0.9-0.9-1.5-1.9-2-3
		c-0.5-1.2-0.7-2.4-0.7-3.7c0-1.3,0.2-2.6,0.7-3.7c0.5-1.2,1.1-2.2,2-3c0.8-0.9,1.8-1.5,3-2c1.2-0.5,2.4-0.7,3.7-0.7
		c1.5,0,2.8,0.3,3.9,0.8c1.2,0.5,2.1,1.3,2.9,2.2c0.8,0.9,1.4,2.1,1.8,3.3c0.4,1.3,0.6,2.7,0.5,4.2H81z M93.4,49.2
		c-0.1-0.8-0.2-1.5-0.5-2.2c-0.3-0.7-0.7-1.3-1.2-1.8s-1.1-0.9-1.8-1.2c-0.7-0.3-1.6-0.4-2.5-0.4c-1.8,0-3.2,0.5-4.3,1.5
		c-1.1,1-1.8,2.4-2,4H93.4z"/>
	<path class="st1" d="M102,27.8h3.1v31.8H102V27.8z"/>
	<path class="st1" d="M119.4,60c-1.2,0-2.4-0.2-3.4-0.7s-2-1.1-2.8-2c-0.8-0.8-1.4-1.8-1.8-3c-0.5-1.2-0.7-2.4-0.7-3.8
		c0-1.3,0.2-2.6,0.7-3.8c0.4-1.2,1.1-2.2,1.8-3s1.7-1.5,2.8-2c1.1-0.5,2.2-0.7,3.5-0.7c1.7,0,3.1,0.4,4.3,1.2c1.1,0.8,2,1.8,2.7,3.1
		l-0.1-3.9h3.1v18.2h-3.1l0.1-3.9c-0.6,1.2-1.5,2.3-2.7,3.1C122.5,59.6,121,60,119.4,60z M120,57.3c1,0,1.8-0.2,2.6-0.5
		c0.8-0.3,1.4-0.8,2-1.4c0.5-0.6,1-1.3,1.3-2.2s0.5-1.7,0.5-2.7c0-1-0.2-1.9-0.5-2.7c-0.3-0.8-0.7-1.5-1.3-2.2
		c-0.5-0.6-1.2-1.1-2-1.4c-0.8-0.3-1.6-0.5-2.6-0.5c-1.9,0-3.4,0.6-4.5,1.9c-1.1,1.3-1.6,2.9-1.6,4.9c0,2,0.5,3.6,1.6,4.9
		C116.6,56.6,118.1,57.3,120,57.3z"/>
</g>
<g class="st0">
	<path class="st1" d="M320.6,59.6h-3.1V27.8h3.1v20.4c0,0.9-0.1,1.8-0.2,2.6l8.7-9.4h3.6l-7,7.7l8.1,10.6H330l-6.6-8.5l-2.9,3V59.6z
		"/>
</g>
<g class="st0">
	<path class="st1" d="M345.5,60c-1.4,0-2.7-0.2-3.8-0.7c-1.2-0.5-2.2-1.2-3.1-2c-0.9-0.9-1.5-1.9-2-3c-0.5-1.2-0.7-2.4-0.7-3.7
		c0-1.3,0.2-2.6,0.7-3.7c0.5-1.2,1.2-2.2,2-3c0.9-0.9,1.9-1.5,3.1-2c1.2-0.5,2.4-0.7,3.8-0.7c1.3,0,2.6,0.2,3.8,0.7
		c1.2,0.5,2.2,1.2,3,2c0.9,0.9,1.5,1.9,2,3c0.5,1.2,0.7,2.4,0.7,3.7c0,1.3-0.2,2.6-0.7,3.7c-0.5,1.2-1.2,2.2-2,3
		c-0.9,0.9-1.9,1.5-3,2C348.1,59.7,346.9,60,345.5,60z M345.5,57.3c1,0,1.9-0.2,2.7-0.5c0.8-0.3,1.5-0.8,2.1-1.4s1-1.3,1.3-2.2
		c0.3-0.8,0.5-1.7,0.5-2.7s-0.2-1.9-0.5-2.7c-0.3-0.8-0.8-1.6-1.3-2.2s-1.3-1.1-2.1-1.4c-0.8-0.3-1.7-0.5-2.7-0.5
		c-1,0-1.9,0.2-2.7,0.5c-0.8,0.3-1.5,0.8-2.1,1.4s-1,1.3-1.4,2.2c-0.3,0.8-0.5,1.7-0.5,2.7s0.2,1.9,0.5,2.7c0.3,0.8,0.8,1.6,1.4,2.2
		s1.3,1.1,2.1,1.4S344.5,57.3,345.5,57.3z"/>
</g>
<g class="st0">
	<path class="st1" d="M363.6,59.6h-3.1V27.8h3.1v20.4c0,0.9-0.1,1.8-0.2,2.6l8.7-9.4h3.6l-7,7.7l8.1,10.6H373l-6.6-8.5l-2.9,3V59.6z
		"/>
</g>
<g class="st0">
	<path class="st1" d="M388.5,60c-1.4,0-2.7-0.2-3.8-0.7s-2.2-1.2-3.1-2c-0.9-0.9-1.5-1.9-2-3c-0.5-1.2-0.7-2.4-0.7-3.7
		c0-1.3,0.2-2.6,0.7-3.7c0.5-1.2,1.2-2.2,2-3c0.9-0.9,1.9-1.5,3.1-2c1.2-0.5,2.4-0.7,3.8-0.7c1.3,0,2.6,0.2,3.8,0.7
		c1.2,0.5,2.2,1.2,3,2c0.9,0.9,1.5,1.9,2,3c0.5,1.2,0.7,2.4,0.7,3.7c0,1.3-0.2,2.6-0.7,3.7c-0.5,1.2-1.2,2.2-2,3
		c-0.9,0.9-1.9,1.5-3,2C391.1,59.7,389.9,60,388.5,60z M388.5,57.3c1,0,1.9-0.2,2.7-0.5s1.5-0.8,2.1-1.4s1-1.3,1.3-2.2
		c0.3-0.8,0.5-1.7,0.5-2.7s-0.2-1.9-0.5-2.7c-0.3-0.8-0.8-1.6-1.3-2.2s-1.3-1.1-2.1-1.4c-0.8-0.3-1.7-0.5-2.7-0.5
		c-1,0-1.9,0.2-2.7,0.5c-0.8,0.3-1.5,0.8-2.1,1.4s-1,1.3-1.4,2.2c-0.3,0.8-0.5,1.7-0.5,2.7s0.2,1.9,0.5,2.7c0.3,0.8,0.8,1.6,1.4,2.2
		s1.3,1.1,2.1,1.4C386.6,57.1,387.5,57.3,388.5,57.3z"/>
	<path class="st1" d="M409.4,60c-2,0-3.7-0.4-5-1.3c-1.3-0.8-2.2-1.8-2.8-3l2.4-1.4c0.5,0.9,1.2,1.6,2,2.2c0.8,0.6,1.9,0.9,3.2,0.9
		c1.2,0,2.2-0.2,2.9-0.7c0.7-0.5,1-1.2,1-2c0-0.5-0.1-0.9-0.3-1.2c-0.2-0.3-0.5-0.6-0.9-0.8c-0.4-0.2-0.9-0.4-1.5-0.6
		c-0.6-0.2-1.3-0.4-2.1-0.6c-0.7-0.2-1.4-0.4-2.1-0.7c-0.7-0.3-1.3-0.6-1.8-1c-0.5-0.4-0.9-0.9-1.2-1.5c-0.3-0.6-0.5-1.3-0.5-2.2
		c0-1.6,0.6-2.8,1.7-3.7c1.2-0.9,2.6-1.3,4.2-1.3c1.4,0,2.6,0.3,3.6,0.8c1,0.5,1.8,1.2,2.5,2.2l-2.1,1.6c-0.5-0.6-1-1.2-1.7-1.5
		s-1.4-0.5-2.3-0.5c-1,0-1.8,0.2-2.3,0.6c-0.6,0.4-0.8,1-0.8,1.7c0,0.4,0.1,0.8,0.2,1.1c0.1,0.3,0.4,0.6,0.7,0.8
		c0.3,0.2,0.8,0.4,1.3,0.6c0.6,0.2,1.2,0.4,2,0.6c0.8,0.2,1.5,0.4,2.2,0.7c0.7,0.3,1.4,0.6,1.9,1.1c0.6,0.4,1,0.9,1.3,1.6
		c0.3,0.6,0.5,1.4,0.5,2.2c0,1.6-0.5,2.8-1.6,3.9C413.3,59.4,411.7,60,409.4,60z"/>
</g>
<g class="st0">
	<path class="st1" d="M419.2,59.2l10.5-15.2h-9.4v-2.6h14.3v0.5l-10.6,15.2h10.4v2.6h-15.3V59.2z"/>
</g>
<g class="st0">
	<path class="st1" d="M442.5,59.6h-3.1V27.8h3.1v20.4c0,0.9-0.1,1.8-0.2,2.6l8.7-9.4h3.6l-7,7.7l8.1,10.6H452l-6.6-8.5l-2.9,3V59.6z
		"/>
</g>
<g class="st0">
	<path class="st1" d="M466.5,60c-1.2,0-2.4-0.2-3.4-0.7c-1.1-0.5-2-1.1-2.8-2c-0.8-0.8-1.4-1.8-1.8-3c-0.5-1.2-0.7-2.4-0.7-3.8
		c0-1.3,0.2-2.6,0.7-3.8c0.4-1.2,1.1-2.2,1.8-3s1.7-1.5,2.8-2c1.1-0.5,2.2-0.7,3.5-0.7c1.7,0,3.1,0.4,4.3,1.2s2,1.8,2.7,3.1
		l-0.1-3.9h3.1v18.2h-3.1l0.1-3.9c-0.6,1.2-1.5,2.3-2.7,3.1C469.6,59.6,468.2,60,466.5,60z M467.1,57.3c1,0,1.8-0.2,2.6-0.5
		c0.8-0.3,1.4-0.8,2-1.4c0.5-0.6,1-1.3,1.3-2.2c0.3-0.8,0.5-1.7,0.5-2.7c0-1-0.2-1.9-0.5-2.7c-0.3-0.8-0.7-1.5-1.3-2.2
		c-0.5-0.6-1.2-1.1-2-1.4s-1.6-0.5-2.6-0.5c-1.9,0-3.4,0.6-4.5,1.9c-1.1,1.3-1.6,2.9-1.6,4.9c0,2,0.5,3.6,1.6,4.9
		C463.7,56.6,465.2,57.3,467.1,57.3z"/>
</g>
<circle class="st1" cx="223.2" cy="46.1" r="46.1"/>
<circle class="st2" cx="223.2" cy="46.1" r="37.1"/>
<g class="st0">
	<path class="st3" d="M215,36.2c-0.6,0-1.1-0.2-1.5-0.6c-0.4-0.4-0.7-0.9-0.7-1.6c0-0.6,0.2-1.2,0.7-1.6c0.4-0.4,1-0.6,1.5-0.6
		c0.6,0,1.1,0.2,1.5,0.6c0.4,0.4,0.7,0.9,0.7,1.6c0,0.6-0.2,1.2-0.7,1.6C216.1,36,215.6,36.2,215,36.2z M213.5,41.5h3.1v18.2h-3.1
		V41.5z"/>
	<path class="st3" d="M226.2,59.7h-3.1V28h3.1v20.4c0,0.9-0.1,1.8-0.2,2.6l8.7-9.4h3.6l-7,7.7l8.1,10.6h-3.7l-6.6-8.5l-2.9,3V59.7z"
		/>
</g>
</svg>
