<svg id="Layer_1" data-name="Layer 1" xmlns="http://www.w3.org/2000/svg" viewBox="0 0 92.2 92.2"><defs><style>.cls-1{fill:#231f20;}.cls-2{fill:none;stroke:#fff;stroke-miterlimit:10;stroke-width:2px;}.cls-3{isolation:isolate;}.cls-4{fill:#fff;}</style></defs><circle class="cls-1" cx="46.1" cy="46.1" r="46.1"/><circle class="cls-2" cx="46.1" cy="46.1" r="37.1"/><g class="cls-3"><path class="cls-4" d="M37.9,36.2a2,2,0,0,1-1.5-.6,2.18,2.18,0,0,1-.7-1.6,2,2,0,0,1,.7-1.6,2.2,2.2,0,0,1,1.5-.6,2,2,0,0,1,1.5.6,2.18,2.18,0,0,1,.7,1.6,2,2,0,0,1-.7,1.6A2,2,0,0,1,37.9,36.2Zm-1.5,5.3h3.1V59.7H36.4Z"/><path class="cls-4" d="M49.1,59.7H46V28h3.1V48.4a21.12,21.12,0,0,1-.2,2.6l8.7-9.4h3.6l-7,7.7,8.1,10.6H58.6L52,51.4l-2.9,3v5.3Z"/></g></svg>